<?xml version="1.0" encoding="UTF-8"?>
<svg id="Layer_2" data-name="Layer 2" xmlns="http://www.w3.org/2000/svg" xmlns:xlink="http://www.w3.org/1999/xlink" viewBox="370 365 1050 315">
  <defs>
    <style>
      .cls-1 {
        fill: none;
      }

      .cls-2 {
        clip-path: url(#clippath);
      }
    </style>
    <clipPath id="clippath">
      <rect class="cls-1" x="370" y="365" width="1050" height="315"/>
    </clipPath>
  </defs>
  <g id="Layer_1-2" data-name="Layer 1">
    <g class="cls-2">
      <g>
        <g>
          <polygon points="413.81 515.19 398.29 515.19 398.29 460.57 398.29 444.9 398.29 437.14 398.29 382.52 398.29 374.75 374.86 374.75 374.86 522.96 468.44 522.96 473.56 522.96 473.56 515.19 451.08 515.19 413.81 515.19"/>
          <rect x="493.12" y="374.75" width="23.43" height="148.2"/>
          <polygon points="536.11 374.75 536.11 522.96 629.69 522.96 645.35 522.96 645.35 515.19 627.85 515.19 606.4 515.19 559.54 515.19 559.54 444.9 614.16 444.9 614.16 437.14 559.54 437.14 559.54 382.52 598.49 382.52 627.85 382.52 645.35 382.52 645.35 374.75 629.69 374.75 536.11 374.75"/>
          <polygon points="766.4 488.94 688.35 388.16 677.9 374.75 664.91 374.75 664.91 522.96 688.35 522.96 688.35 401.01 766.4 501.64 782.91 522.96 789.83 522.96 789.83 374.75 766.4 374.75 766.4 488.94"/>
          <polygon points="950.59 382.52 950.59 429.38 950.59 437.14 872.54 437.14 872.54 429.38 872.54 382.52 872.54 374.75 849.11 374.75 849.11 522.96 872.54 522.96 872.54 515.19 872.54 468.33 872.54 444.9 950.59 444.9 950.59 468.33 950.59 515.19 950.59 522.96 974.02 522.96 974.02 374.75 950.59 374.75 950.59 382.52"/>
          <path d="M1099.27,448.86c0,12.23-1.93,23.36-5.79,33.38-3.86,10.02-9.03,18.02-15.53,23.99-6.49,5.98-13.69,8.96-21.59,8.96s-15.1-2.98-21.6-8.96c-6.49-5.97-11.67-13.97-15.53-23.99-3.86-10.02-5.79-21.15-5.79-33.38v-74.1h-23.43v74.1c0,11.29,2.09,21.81,6.28,31.54,4.19,9.74,9.9,18.04,17.15,24.91,5.83,5.55,12.4,9.88,19.69,12.99,7.29,3.1,15.03,4.66,23.22,4.66s15.92-1.55,23.22-4.66c7.29-3.11,13.85-7.44,19.69-12.99,7.25-6.87,12.96-15.17,17.15-24.91,4.19-9.74,6.28-20.25,6.28-31.54v-74.1h-23.43v74.1Z"/>
          <polygon points="1240.18 488.94 1162.12 388.16 1151.68 374.75 1138.69 374.75 1138.69 522.96 1162.12 522.96 1162.12 401.01 1240.18 501.64 1256.69 522.96 1263.61 522.96 1263.61 374.75 1240.18 374.75 1240.18 488.94"/>
          <path d="M1388.86,473.28c0,7.25-1.72,14.07-5.15,20.46-3.44,6.4-8.26,11.57-14.47,15.53-6.02,3.95-12.47,5.93-19.34,5.93-8.66,0-16.54-2.98-23.64-8.96-7.11-5.97-12.75-13.97-16.94-23.99-4.19-10.02-6.28-21.15-6.28-33.38s2.1-23.36,6.28-33.38c4.19-10.02,9.83-18.02,16.94-23.99,7.1-5.97,14.98-8.96,23.64-8.96,8,0,15.36,2.61,22.09,7.83,6.72,5.22,12.21,12.21,16.44,20.96l15.24-10.02c-6.49-8.28-14.4-14.77-23.71-19.47-9.32-4.7-19.34-7.06-30.07-7.06-12.98,0-24.79,3.32-35.43,9.95-10.63,6.63-19.1,15.57-25.41,26.82-6.31,11.24-9.46,23.69-9.46,37.33s3.15,26.06,9.46,37.26c6.3,11.2,14.77,20.14,25.41,26.82,10.63,6.68,22.44,10.02,35.43,10.02,14.4,0,27.39-4.14,38.96-12.42v12.42h23.43v-78.06h-23.43v28.37Z"/>
        </g>
        <g>
          <path d="M745.37,569.81h3.57c2.38,0,4.66.52,6.84,1.56.89.43,1.6.89,2.12,1.36.52.47.92,1.14,1.19,1.98.27.85.46,1.91.56,3.21.1,1.29.15,2.98.15,5.05v70.81c0,5.32-.59,10.46-1.78,11.8-1.84,2.11-4.86,3.17-9.08,3.17h-3.57v2.4h43.31v-2.4h-3.65c-2.43,0-4.71-.52-6.85-1.55-.89-.43-1.61-.9-2.16-1.4-.54-.49-.95-1.16-1.23-1.98-.27-.82-.46-1.88-.56-3.17-.1-1.3-.15-4.8-.15-6.87v-27.62h18.38c2.53,0,4.62.23,6.29.68,1.66.45,2.99,1.18,3.98,2.17.99,1,1.71,2.27,2.16,3.83.45,1.56.7,3.44.75,5.64h2.75v-29.75h-2.75c-.35,2.42-.82,4.41-1.42,5.96-.6,1.56-1.42,2.79-2.46,3.7-1.04.91-2.32,1.53-3.83,1.88-1.51.35-3.34.51-5.47.51h-18.38v-48.58h22.24c3.27,0,6.1.16,8.48.49,2.38.32,4.45,1,6.21,2.04,1.76,1.04,3.25,2.51,4.47,4.41,1.21,1.9,2.32,4.43,3.31,7.58h1.64v-19.31h-75.07v2.39Z"/>
          <path d="M883.12,617.29c-2.9-2.77-6.36-4.97-10.38-6.61-4.02-1.64-8.43-2.46-13.24-2.46s-9.39.91-13.43,2.72c-4.04,1.82-7.51,4.23-10.41,7.23-2.91,3.01-5.15,6.43-6.74,10.28-1.58,3.85-2.38,7.78-2.38,11.8s.77,7.82,2.3,11.54c1.54,3.71,3.72,7.01,6.55,9.88,2.83,2.87,6.22,5.18,10.16,6.9,3.94,1.73,8.32,2.59,13.13,2.59s9.43-.9,13.54-2.69c4.12-1.79,7.66-4.2,10.64-7.23,2.98-3.02,5.3-6.49,6.96-10.4,1.66-3.91,2.49-8,2.49-12.28s-.81-7.93-2.41-11.61c-1.61-3.67-3.87-6.89-6.77-9.66ZM877.2,654.38c-.84,2.94-2.01,5.3-3.5,7.1-1.49,1.79-3.23,3.09-5.25,3.89-2.01.8-4.2,1.2-6.58,1.2-3.27,0-6.24-.87-8.89-2.59-2.65-1.73-4.91-4.05-6.77-6.97-1.86-2.92-3.3-6.3-4.32-10.14-1.02-3.85-1.53-7.87-1.53-12.06s.47-7.51,1.42-10.34c.94-2.83,2.19-5.14,3.75-6.93,1.56-1.79,3.35-3.09,5.36-3.89,2.01-.8,4.1-1.2,6.29-1.2,3.37,0,6.39.82,9.04,2.46,2.65,1.65,4.89,3.88,6.7,6.71,1.81,2.83,3.19,6.13,4.13,9.89.94,3.76,1.42,7.78,1.42,12.06s-.42,7.89-1.27,10.83Z"/>
          <path d="M954.99,617.29c-2.9-2.77-6.36-4.97-10.38-6.61-4.02-1.64-8.43-2.46-13.24-2.46s-9.39.91-13.43,2.72c-4.04,1.82-7.51,4.23-10.41,7.23-2.91,3.01-5.15,6.43-6.74,10.28-1.58,3.85-2.38,7.78-2.38,11.8s.77,7.82,2.3,11.54c1.54,3.71,3.72,7.01,6.55,9.88,2.83,2.87,6.22,5.18,10.16,6.9,3.94,1.73,8.32,2.59,13.13,2.59s9.43-.9,13.54-2.69c4.12-1.79,7.66-4.2,10.64-7.23,2.98-3.02,5.3-6.49,6.96-10.4,1.66-3.91,2.49-8,2.49-12.28s-.81-7.93-2.41-11.61c-1.61-3.67-3.87-6.89-6.77-9.66ZM949.07,654.38c-.84,2.94-2.01,5.3-3.5,7.1-1.49,1.79-3.23,3.09-5.25,3.89-2.01.8-4.2,1.2-6.58,1.2-3.27,0-6.24-.87-8.89-2.59-2.65-1.73-4.91-4.05-6.77-6.97-1.86-2.92-3.3-6.3-4.32-10.14-1.02-3.85-1.53-7.87-1.53-12.06s.47-7.51,1.42-10.34c.94-2.83,2.19-5.14,3.75-6.93,1.56-1.79,3.35-3.09,5.36-3.89,2.01-.8,4.1-1.2,6.29-1.2,3.37,0,6.39.82,9.04,2.46,2.65,1.65,4.89,3.88,6.7,6.71,1.81,2.83,3.19,6.13,4.13,9.89.94,3.76,1.42,7.78,1.42,12.06s-.42,7.89-1.27,10.83Z"/>
          <path d="M1040.96,661.57c-2.29.73-4.07,1.1-5.36,1.1-1.09,0-2.05-.3-2.87-.91-.82-.6-1.42-1.66-1.82-3.17-.35-1.47-.52-5.73-.52-12.77v-78.4h-3.35l-20.31,7.26.97,2.27c2.08-.69,3.79-1.03,5.13-1.03,1.68,0,2.9.27,3.64.81.74.54,1.24,1.22,1.49,2.04.25.82.33,1.7.26,2.62-.08.93-.11,1.78-.11,2.56v29.19c-3.97-3.33-8.93-4.99-14.88-4.99-9.62,0-17.54,3.55-23.73,10.63-6.15,7.05-9.23,14.83-9.23,23.34,0,4.23.75,8.13,2.27,11.67,1.51,3.55,3.55,6.6,6.1,9.18,2.56,2.57,5.5,4.58,8.85,6.03,3.35,1.45,6.88,2.17,10.6,2.17s7.16-.66,10.31-1.98c3.15-1.31,6.39-3.49,9.71-6.52v8.49h3.42l20.24-7.33-.81-2.27ZM1018.12,658.14c-4.22,3.93-8.58,5.9-13.09,5.9-2.63,0-5.21-.59-7.74-1.75-2.53-1.17-4.78-2.89-6.77-5.19-1.98-2.29-3.58-5.12-4.79-8.49-1.22-3.37-1.82-7.24-1.82-11.61,0-3.71.47-7.1,1.42-10.14.94-3.05,2.24-5.66,3.91-7.85,1.66-2.18,3.61-3.87,5.84-5.05,2.23-1.19,4.66-1.78,7.29-1.78,1.78,0,3.56.34,5.32,1,1.76.67,3.37,1.67,4.84,2.99,1.47,1.31,2.71,2.92,3.72,4.83,1.01,1.9,1.65,4.08,1.89,6.55v30.6Z"/>
        </g>
      </g>
    </g>
  </g>
</svg>